<svg width="167" height="92" viewBox="0 0 167 92" fill="none" xmlns="http://www.w3.org/2000/svg">
<g clip-path="url(#clip0_6_303)">
<path d="M142.74 75.51L142.841 92L145.575 91.981L145.486 78.472L166.999 78.332L166.981 75.352L142.734 75.504L142.74 75.51ZM137.273 57.737L143.164 74.132L145.739 73.208L140.855 59.617L148.84 56.75L153.345 69.304L155.787 68.424L151.282 55.871L158.521 53.271L163.406 66.861L165.981 65.938L160.09 49.543L137.273 57.737ZM130.851 48.544C134.552 53.08 140.089 54.554 144.929 51.948L143.658 49.233C139.488 51.245 135.666 50.119 132.971 46.816C129.509 42.576 130.079 37.022 134.698 33.256C139.317 29.492 144.872 30.055 148.327 34.301C150.997 37.578 151.485 41.463 149.055 44.791L151.478 46.614C154.604 42.722 154.098 37.059 150.447 32.574C145.828 26.91 138.387 26.271 132.749 30.871C127.111 35.471 126.232 42.887 130.851 48.55M109.705 27.03L118.962 10.7L124.473 13.825C129.598 16.73 130.807 20.918 127.674 26.429C124.46 32.092 120.335 33.06 115.152 30.119L109.698 27.024L109.705 27.03ZM105.763 27.942L113.9 32.554C120.499 36.294 126.301 35.124 130.364 27.954C134.274 21.058 132.458 15.204 125.915 11.497L117.721 6.853L105.763 27.948V27.942ZM86.881 23.905L104.054 26.86L104.516 24.164L90.279 21.715L91.716 13.351L104.858 15.61L105.301 13.047L92.159 10.782L93.462 3.202L107.699 5.65L108.161 2.955L90.988 0L86.875 23.898L86.882 23.905H86.881ZM74.941 22.525C69.456 23.545 64.957 20.355 63.875 14.502C62.793 8.643 65.849 4.062 71.335 3.043C76.821 2.031 81.32 5.213 82.402 11.073C83.484 16.932 80.426 21.513 74.941 22.525ZM75.441 25.215C82.762 23.86 86.723 17.666 85.401 10.51C84.079 3.36 78.162 -1.006 70.84 0.348C63.551 1.696 59.52 7.903 60.843 15.053C62.165 22.209 68.151 26.556 75.441 25.208M54.098 32.567C60.04 28.808 61.444 22.797 58.255 17.761L57.123 15.977L47.758 21.905L49.131 24.069L55.952 19.754C57.996 23.051 57.116 27.423 52.636 30.257C48.131 33.111 42.753 31.801 39.583 26.79C36.4 21.753 37.533 16.363 42.044 13.509C45.556 11.288 49.434 11.579 52.522 14.464L54.623 12.275C51.086 8.694 45.41 8.143 40.583 11.2C34.496 15.053 33.11 22.323 36.976 28.442C40.848 34.56 48.011 36.42 54.098 32.567ZM33.516 51.151L35.37 48.822L27.372 42.457L35.692 31.991L33.662 30.371L25.334 40.837L18.533 35.427L27.549 24.095L25.41 22.393L14.54 36.053L33.516 51.151ZM14.508 63.204L6.06798 60.174L8.97198 52.087C10.212 48.632 12.256 47.449 15.027 48.449C17.83 49.455 18.659 51.663 17.437 55.054L14.508 63.204ZM20.387 54.827C21.627 50.448 20.083 47.063 16.039 45.607C11.769 44.077 8.21898 46.076 6.45898 50.961L2.47998 62.046L25.298 70.24L26.304 67.437L17.078 64.122L19.293 57.959L30.6 55.472L31.77 52.214L20.413 54.833L20.381 54.82L20.388 54.827H20.387ZM24.24 89.494L24.348 72.075L21.614 72.056L21.519 86.501L13.034 86.451L13.116 73.113L10.516 73.093L10.433 86.432L2.74598 86.382L2.83398 71.936L0.100981 71.916L-0.00701904 89.343L24.24 89.494ZM118.488 89.456H121.468V67.943H130.611V65.21H109.344V67.943H118.488V89.456ZM85.306 89.456H88.286V69.436H88.356L102.941 89.456H106.231V65.21H103.219V85.23H103.15L88.565 65.21H85.306V89.456ZM64.002 89.456H81.428V86.716H66.982V78.232H80.32V75.632H66.982V67.943H81.428V65.21H64.002V89.456ZM49.076 89.976C56.106 89.976 60.503 85.647 60.503 79.687V77.574H49.417V80.136H57.491C57.453 84.015 54.371 87.236 49.075 87.236C43.779 87.236 39.895 83.249 39.895 77.326C39.895 71.404 43.741 67.418 49.075 67.418C53.233 67.418 56.352 69.74 57.421 73.828L60.364 73.1C59.288 68.184 54.789 64.685 49.069 64.685C41.862 64.685 36.807 70.088 36.807 77.327C36.807 84.565 41.862 89.969 49.069 89.969" fill="#2A2A2A"/>
</g>
<defs>
<clipPath id="clip0_6_303">
<rect width="167" height="92" fill="white"/>
</clipPath>
</defs>
</svg>
