<svg width="19" height="18" viewBox="0 0 19 18" fill="none" xmlns="http://www.w3.org/2000/svg">
<g clip-path="url(#clip0_6_325)">
<path d="M13.9147 1.79156e-06H5.9475C4.61479 -0.00112186 3.33603 0.526358 2.39168 1.46675C1.44734 2.40715 0.914498 3.68369 0.910034 5.01639L0.910034 12.9836C0.913373 14.313 1.44296 15.587 2.38299 16.527C3.32302 17.4671 4.59702 17.9967 5.92643 18H13.9147C15.2441 17.9967 16.5181 17.4671 17.4582 16.527C18.3982 15.587 18.9278 14.313 18.9311 12.9836V5.01639C18.9278 3.68699 18.3982 2.41299 17.4582 1.47296C16.5181 0.532924 15.2441 0.00334062 13.9147 1.79156e-06ZM17.4557 12.9836C17.4535 13.9221 17.0797 14.8214 16.4161 15.485C15.7525 16.1486 14.8532 16.5224 13.9147 16.5246H5.9475C5.00906 16.5224 4.10969 16.1486 3.44611 15.485C2.78253 14.8214 2.40875 13.9221 2.40652 12.9836V5.01639C2.40875 4.07795 2.78253 3.17858 3.44611 2.515C4.10969 1.85142 5.00906 1.47764 5.9475 1.47541H13.9147C14.8532 1.47764 15.7525 1.85142 16.4161 2.515C17.0797 3.17858 17.4535 4.07795 17.4557 5.01639V12.9836Z" fill="#2A2A2A"/>
<path d="M9.93115 4.34192C9.00987 4.34192 8.10928 4.61511 7.34326 5.12695C6.57725 5.63878 5.98021 6.36628 5.62765 7.21743C5.27509 8.06858 5.18284 9.00517 5.36258 9.90875C5.54231 10.8123 5.98595 11.6423 6.63739 12.2938C7.28884 12.9452 8.11883 13.3888 9.02241 13.5686C9.92599 13.7483 10.8626 13.6561 11.7137 13.3035C12.5649 12.9509 13.2924 12.3539 13.8042 11.5879C14.316 10.8219 14.5892 9.92128 14.5892 9C14.5853 7.7658 14.0933 6.58325 13.2206 5.71054C12.3479 4.83782 11.1654 4.34581 9.93115 4.34192ZM9.93115 12.1827C9.30168 12.1827 8.68634 11.996 8.16296 11.6463C7.63957 11.2966 7.23164 10.7995 6.99075 10.218C6.74986 9.6364 6.68683 8.99647 6.80964 8.37909C6.93244 7.76171 7.23556 7.19462 7.68067 6.74951C8.12577 6.30441 8.69287 6.00129 9.31025 5.87848C9.92762 5.75568 10.5676 5.81871 11.1491 6.05959C11.7307 6.30048 12.2277 6.70841 12.5774 7.2318C12.9272 7.75519 13.1138 8.37053 13.1138 9C13.111 9.84324 12.7748 10.6512 12.1786 11.2474C11.5823 11.8437 10.7744 12.1799 9.93115 12.1827Z" fill="#2A2A2A"/>
<path d="M14.7157 5.45902C15.3792 5.45902 15.9171 4.92114 15.9171 4.25762C15.9171 3.5941 15.3792 3.05621 14.7157 3.05621C14.0522 3.05621 13.5143 3.5941 13.5143 4.25762C13.5143 4.92114 14.0522 5.45902 14.7157 5.45902Z" fill="#2A2A2A"/>
</g>
<defs>
<clipPath id="clip0_6_325">
<rect width="18.0211" height="18" fill="white" transform="translate(0.910034)"/>
</clipPath>
</defs>
</svg>
