<svg width="136" height="70" viewBox="0 0 136 70" fill="none" xmlns="http://www.w3.org/2000/svg">
<g clip-path="url(#clip0_6_320)">
<path d="M14.85 69.13C20.29 69.13 24.85 67.27 27.4 63.95H27.52V68.13H32.64V34.21H27.42V53.35C27.42 59.87 22.68 64.48 16.09 64.48C9.18 64.48 5.27 60.39 5.27 53.41V34.21H0V54.43C0 58.91 1.35 62.5 4 65.12C6.65 67.74 10.31 69.13 14.85 69.13ZM58.52 69.13C63.83 69.13 68.52 67.21 71.26 63.95H71.42V68.13H76.42V21.41H71.19V38.5H71.07C68.25 35.17 63.51 33.25 58.2 33.25C55.841 33.2051 53.4972 33.637 51.3093 34.5201C49.1213 35.4031 47.1343 36.719 45.4673 38.3887C43.8004 40.0585 42.4878 42.0477 41.6085 44.2372C40.7291 46.4266 40.3011 48.7711 40.35 51.13C40.35 61.67 47.96 69.13 58.52 69.13ZM58.84 64.52C50.71 64.52 45.59 59.34 45.59 51.21C45.59 43.08 50.78 37.86 58.52 37.86C65.69 37.86 71.19 42.66 71.19 48.61V53.73C71.19 59.68 65.75 64.48 58.84 64.48V64.52ZM90.99 28.26V22.43H84.91V28.26H90.99ZM90.67 68.13V34.21H85.42V68.13H90.67ZM116.74 69.13C127.3 69.13 135.24 61.51 135.24 51.21C135.24 40.91 127.3 33.29 116.74 33.29C106.18 33.29 98.12 40.99 98.31 51.13C98.12 61.35 106.24 69.28 116.74 69.13ZM116.74 64.52C109.12 64.52 103.56 59.15 103.56 51.21C103.56 43.27 109.12 37.9 116.74 37.9C124.36 37.9 129.99 43.23 129.99 51.13C129.99 59.03 124.42 64.48 116.74 64.48V64.52ZM0.64 12.55C0.64 17.92 2.75 22.85 5.88 25.15V25.28H1.6V30.34H25.42C32.14 30.34 36.5 24.83 36.5 16.19C36.6247 12.3548 35.5019 8.58264 33.3 5.44C31.2908 2.63888 28.2513 0.750446 24.85 0.19L23.74 5.25C28.86 6.25 31.87 10.31 31.87 16.19C31.87 21.38 29.76 24.71 26.49 24.71C23.87 24.71 22.49 22.21 21.31 14.98C19.58 4.13 16.64 0 10.68 0C4.48 0 0.64 4.67 0.64 12.55ZM5.31 13.63C5.31 8 7.04 5.31 10.68 5.31C14.01 5.31 15.8 8.31 17.08 15.94C18.08 21.57 19 24 20.73 24.94V25.13H13.42C9.15 25.13 5.31 19.65 5.31 13.63Z" fill="#2A2A2A"/>
</g>
<defs>
<clipPath id="clip0_6_320">
<rect width="135.23" height="69.09" fill="white"/>
</clipPath>
</defs>
</svg>
