<svg width="308" height="248" viewBox="0 0 308 248" fill="none" xmlns="http://www.w3.org/2000/svg">
<g clip-path="url(#clip0_6_328)">
<path d="M23.49 246.32L40.19 212.4H34.5L21.18 240.4H21.06L7.67997 212.4H1.91997L18.62 246.32H23.49ZM59.93 247.32C67.16 247.32 72.93 244.25 76.5 238.32L72.34 235.57C69.46 240.37 65.34 242.8 59.93 242.8C52.93 242.8 47.13 237.94 47.13 231.22H77.53V229.32C77.53 218.88 69.91 211.46 59.86 211.46C49.3 211.46 41.86 218.82 41.86 229.57C41.86 240.32 49.05 247.32 59.93 247.32ZM72.15 227.03H47.15C47.53 220.7 52.78 215.96 59.82 215.96C66.33 215.92 71.77 220.85 72.15 226.99V227.03ZM90.41 246.32V226.16C90.41 220.27 93.61 216.88 98.47 216.88C100.013 216.891 101.545 217.127 103.02 217.58L104.17 212.58C102.469 212.057 100.699 211.797 98.92 211.81C97.2834 211.809 95.6656 212.158 94.1753 212.834C92.6849 213.51 91.3567 214.498 90.28 215.73H90.15V212.4H85.15V246.32H90.41ZM122.5 246.32L134.5 217.9H134.63L146.5 246.32H151.28L161.39 212.4H156.15L148.28 238.96H148.15L137.01 212.4H131.96L120.82 238.96H120.69L112.89 212.4H107.64L117.82 246.32H122.5ZM177.69 247.32C183.06 247.32 187.99 245.21 190.29 242.07H190.42V246.32H195.48V222.51C195.48 215.79 189.97 211.44 181.33 211.44C177.495 211.315 173.723 212.438 170.58 214.64C167.779 216.649 165.89 219.689 165.33 223.09L170.39 224.18C171.39 219.06 175.45 216.05 181.33 216.05C186.52 216.05 189.85 218.16 189.85 221.42C189.85 224.05 187.35 225.42 180.12 226.61C169.3 228.34 165.12 231.28 165.12 237.23C165.14 243.44 169.81 247.32 177.69 247.32ZM178.77 242.65C173.14 242.65 170.45 240.92 170.45 237.27C170.45 233.94 173.45 232.15 181.08 230.87C186.71 229.87 189.14 228.95 190.08 227.22H190.28V234.52C190.28 238.77 184.79 242.61 178.77 242.61V242.65ZM220.91 247.32C224.86 247.415 228.738 246.248 231.98 243.99C235.037 241.869 237.219 238.71 238.12 235.1L233.07 233.82C231.34 239.7 226.99 242.71 220.91 242.71C213.55 242.71 208.04 237.46 208.04 229.4C208.04 221.34 213.55 216.09 220.91 216.09C226.99 216.09 231.34 219.09 233.07 224.98L238.12 223.7C237.219 220.09 235.037 216.931 231.98 214.81C228.738 212.552 224.86 211.385 220.91 211.48C210.6 211.48 202.79 219.22 202.79 229.4C202.79 239.58 210.6 247.32 220.91 247.32ZM250.75 246.32V227.18C250.75 220.66 255.68 216.05 262.59 216.05C269.5 216.05 273.73 220.21 273.73 226.93V246.32H278.98V225.9C278.98 217.33 272.45 211.44 262.91 211.44C257.86 211.44 253.5 213.3 250.91 216.62H250.78V199.62H245.53V246.32H250.75ZM305.69 246.32V241.71H300.37C297.62 241.71 296.66 240.88 296.66 238.58V216.82H307.54V212.4H296.66V204.78H291.41V212.4H284.05V216.82H291.41V238.51C291.41 244.08 293.97 246.32 300.31 246.32H305.69ZM0.969971 14.85L29.38 26.85V26.97L0.969971 38.85V43.58L34.89 53.7V48.45L8.32997 40.64V40.51L34.89 29.38V24.32L8.32997 13.18V13.06L34.89 5.25V0L0.969971 10.18V14.85ZM0.0099707 75.92C0.0099707 86.48 7.61997 94.42 17.93 94.42C28.24 94.42 35.85 86.48 35.85 75.92C35.85 65.36 28.1 57.32 17.93 57.49C7.74997 57.32 -0.180029 65.43 0.0099707 75.92ZM4.61997 75.92C4.61997 68.31 9.98997 62.74 17.93 62.74C25.87 62.74 31.28 68.32 31.28 75.92C31.28 83.52 25.86 89.17 17.93 89.17C9.99997 89.17 4.61997 83.6 4.61997 75.92ZM0.969971 107.32H21.13C27.02 107.32 30.41 110.52 30.41 115.38C30.4006 116.92 30.1613 118.45 29.7 119.92L34.7 121.08C35.2195 119.379 35.4758 117.609 35.46 115.83C35.4652 114.195 35.1197 112.577 34.447 111.087C33.7742 109.597 32.7898 108.268 31.56 107.19V107.06H34.89V102.06H0.969971V107.32ZM-0.0300293 141.45C-0.0300293 146.76 1.88997 151.45 5.14997 154.19V154.32H0.969971V159.32H47.69V154.07H30.6V153.94C33.93 151.13 35.85 146.39 35.85 141.08C35.8951 138.717 35.4619 136.37 34.5765 134.178C33.6911 131.987 32.3719 129.998 30.6979 128.329C29.024 126.661 27.0301 125.348 24.8359 124.47C22.6417 123.592 20.2927 123.167 17.93 123.22C7.42997 123.26 0.0099707 130.88 0.0099707 141.44L-0.0300293 141.45ZM4.57997 141.77C4.57997 133.64 9.75997 128.52 17.89 128.52C26.02 128.52 31.28 133.7 31.28 141.44C31.28 148.61 26.48 154.11 20.53 154.11H15.37C9.41997 154.11 4.61997 148.67 4.61997 141.76L4.57997 141.77ZM0.969971 187.03H5.57997V181.72C5.57997 178.96 6.40997 178 8.70997 178H30.47V188.88H34.89V178H42.5V172.76H34.89V165.4H30.47V172.76H8.77997C3.20997 172.76 0.969971 175.32 0.969971 181.65V187.03Z" fill="#2A2A2A"/>
</g>
<defs>
<clipPath id="clip0_6_328">
<rect width="307.54" height="247.28" fill="white"/>
</clipPath>
</defs>
</svg>
