<svg width="162" height="97" viewBox="0 0 162 97" fill="none" xmlns="http://www.w3.org/2000/svg">
<g clip-path="url(#clip0_6_296)">
<path d="M18.54 96.93C22.4901 97.0247 26.3677 95.8582 29.61 93.6C32.667 91.4793 34.8492 88.3199 35.75 84.71L30.7 83.43C28.97 89.31 24.62 92.32 18.54 92.32C11.18 92.28 5.67 87.03 5.67 78.93C5.67 70.83 11.18 65.66 18.54 65.66C24.62 65.66 28.97 68.66 30.7 74.55L35.75 73.27C34.8492 69.6601 32.667 66.5007 29.61 64.38C26.3677 62.1218 22.4901 60.9553 18.54 61.05C8.23 61.05 0.42 68.79 0.42 78.93C0.42 89.07 8.23 96.93 18.54 96.93ZM48.38 95.93V76.79C48.38 70.27 53.31 65.66 60.22 65.66C67.13 65.66 71.36 69.82 71.36 76.54V95.93H76.61V75.51C76.61 66.94 70.08 61.05 60.54 61.05C55.48 61.05 51.13 62.93 48.48 66.23H48.38V49.23H43.13V95.93H48.38ZM90.83 56.06V50.23H84.75V56.06H90.83ZM90.48 95.93V62.01H85.27V95.93H90.48ZM116.23 96.93C123.47 96.93 129.23 93.86 132.81 87.93L128.65 85.18C125.77 89.98 121.65 92.41 116.23 92.41C109.23 92.41 103.43 87.55 103.43 80.83H133.83V78.93C133.83 68.49 126.22 61.07 116.17 61.07C105.61 61.07 98.17 68.43 98.17 79.18C98.17 89.93 105.38 96.93 116.26 96.93H116.23ZM128.48 76.6H103.48C103.86 70.27 109.11 65.53 116.15 65.53C119.222 65.4818 122.199 66.5953 124.485 68.6479C126.771 70.7004 128.198 73.5406 128.48 76.6ZM149.89 95.93V66.43H161.89V62.01H149.89V59.01C149.89 56.77 150.89 55.81 153.09 55.81H160.48V51.19H152.8C147.48 51.19 144.67 54.01 144.67 58.55V62.01H137.28V66.43H144.64V95.93H149.89ZM0 12.54C0 17.92 2.11 22.85 5.25 25.15V25.28H0.96V30.34H24.77C31.49 30.34 35.84 24.83 35.84 16.19C35.9662 12.3546 34.8432 8.582 32.64 5.44C30.6308 2.63888 27.5913 0.750446 24.19 0.19L23.1 5.25C28.22 6.25 31.23 10.25 31.23 16.19C31.23 21.38 29.12 24.7 25.85 24.7C23.23 24.7 21.85 22.21 20.67 14.98C18.94 4.16 16 0 10.05 0C3.84 0 0 4.67 0 12.54ZM4.67 13.63C4.67 8 6.4 5.31 10.05 5.31C13.37 5.31 15.17 8.31 16.45 15.94C17.45 21.57 18.37 24 20.09 24.94V25.07H12.8C8.48 25.09 4.67 19.65 4.67 13.63ZM0.96 44.18H21.12C27.01 44.18 30.4 47.38 30.4 52.24C30.39 53.7835 30.1507 55.3169 29.69 56.79L34.69 57.94C35.2197 56.2406 35.4861 54.4701 35.48 52.69C35.4845 51.0549 35.1388 49.4378 34.4661 47.9474C33.7934 46.4571 32.8093 45.1282 31.58 44.05V43.93H34.88V38.93H0.96V44.18Z" fill="#2A2A2A"/>
</g>
<defs>
<clipPath id="clip0_6_296">
<rect width="161.92" height="96.89" fill="white"/>
</clipPath>
</defs>
</svg>
