<svg width="185" height="160" viewBox="0 0 185 160" fill="none" xmlns="http://www.w3.org/2000/svg">
<g clip-path="url(#clip0_6_301)">
<path d="M87.84 158.95V154.53H61.18V154.41L87.68 129.19V125.03H54.84V129.45H80.19V129.57L53.76 154.79V158.95H87.84ZM100.15 119.08V113.25H94.04V119.08H100.15ZM99.84 158.95V125.03H94.55V158.95H99.84ZM125.59 159.95C132.82 159.95 138.59 156.88 142.16 150.95L138 148.2C135.12 153 131 155.43 125.59 155.43C118.59 155.43 112.79 150.57 112.79 143.85H143.19V141.95C143.19 131.51 135.57 124.09 125.52 124.09C114.96 124.09 107.52 131.45 107.52 142.2C107.52 152.95 114.67 159.95 125.55 159.95H125.59ZM137.81 139.66H112.84C113.22 133.33 118.47 128.59 125.51 128.59C131.95 128.55 137.39 133.48 137.77 139.62L137.81 139.66ZM156.03 158.95V139.81C156.03 133.29 161.03 128.68 168.19 128.68C174.85 128.68 179.01 132.84 179.01 139.56V158.95H184.26V138.53C184.26 129.96 177.73 124.07 168.19 124.07C163.26 124.07 158.59 125.99 156.03 129.25H155.9V125.03H150.78V158.95H156.03ZM0.959961 5.25H20.09C26.62 5.25 31.23 10.25 31.23 17.41C31.23 24.07 27.07 28.23 20.35 28.23H0.959961V33.48H21.37C29.95 33.48 35.84 26.95 35.84 17.41C35.84 12.48 33.92 7.81 30.65 5.25V5.12H34.84V0H0.959961V5.25ZM-0.0400391 56.34C-0.0400391 61.78 1.80996 66.34 5.13996 68.89V69.02H0.959961V74.14H34.84V68.89H15.74C9.20996 68.89 4.60996 64.15 4.60996 57.56C4.60996 50.65 8.69996 46.74 15.68 46.74H34.84V41.5H14.65C10.17 41.5 6.58996 42.84 3.96996 45.5C1.34996 48.16 -3.90634e-05 51.8 -3.90634e-05 56.34H-0.0400391ZM0.959961 118.4H5.56996V113.09C5.56996 110.34 6.39996 109.38 8.69996 109.38H30.46V120.26H34.84V109.38H42.45V104.13H34.84V96.77H30.46V104.13H8.76996C3.19996 104.13 0.959961 106.69 0.959961 113.03V118.4ZM-0.0400391 141.72C-0.0400391 148.95 3.02996 154.72 8.95996 158.3L11.71 154.14C6.90996 151.26 4.47996 147.14 4.47996 141.72C4.47996 134.72 9.33996 128.92 16.06 128.92V159.32H17.98C28.41 159.32 35.84 151.7 35.84 141.66C35.84 131.1 28.48 123.61 17.73 123.61C6.97996 123.61 -3.90634e-05 130.84 -3.90634e-05 141.72H-0.0400391ZM20.29 153.95V128.95C26.62 129.34 31.36 134.59 31.36 141.63C31.4104 144.702 30.2973 147.679 28.2441 149.964C26.1908 152.249 23.3494 153.673 20.29 153.95Z" fill="#2A2A2A"/>
</g>
<defs>
<clipPath id="clip0_6_301">
<rect width="184.26" height="159.91" fill="white"/>
</clipPath>
</defs>
</svg>
