<svg width="19" height="18" viewBox="0 0 19 18" fill="none" xmlns="http://www.w3.org/2000/svg">
<g clip-path="url(#clip0_6_295)">
<path d="M18.91 18H15.1832V12.1541C15.1832 10.7591 15.1586 8.96727 13.2441 8.96727C11.3295 8.96727 11.0063 10.485 11.0063 12.0559V18H7.27952V5.97682H10.8591V7.61318H10.9082C11.2655 6.99996 11.7827 6.49529 12.4045 6.15305C13.0263 5.81081 13.7293 5.64386 14.4386 5.67C18.2145 5.67818 18.91 8.18182 18.91 11.4055V18ZM3.07407 4.33228C2.6449 4.33389 2.2249 4.20811 1.86727 3.97085C1.50964 3.7336 1.23047 3.39554 1.06511 2.99951C0.899747 2.60347 0.855641 2.16726 0.938374 1.74614C1.02111 1.32502 1.22696 0.937918 1.52986 0.633874C1.83275 0.329829 2.21907 0.122516 2.63988 0.0381905C3.06069 -0.0461346 3.49705 -0.00367779 3.89371 0.160184C4.29037 0.324045 4.62948 0.601939 4.86809 0.95867C5.1067 1.3154 5.23407 1.73492 5.23407 2.16409C5.23461 2.44829 5.17916 2.7298 5.0709 2.99257C4.96265 3.25533 4.80369 3.4942 4.60312 3.69554C4.40254 3.89687 4.16427 4.05673 3.90192 4.16598C3.63957 4.27523 3.35826 4.33174 3.07407 4.33228ZM4.93952 18H1.20862V5.97682H4.93952V18Z" fill="#2A2A2A"/>
</g>
<defs>
<clipPath id="clip0_6_295">
<rect width="18" height="18" fill="white" transform="translate(0.910034)"/>
</clipPath>
</defs>
</svg>
