<svg width="1066" height="408" viewBox="0 0 1066 408" fill="none" xmlns="http://www.w3.org/2000/svg">
<g clip-path="url(#clip0_6_310)">
<path d="M106.48 404.54V359.32C106.48 346.86 115.02 338.32 127.48 338.32C130.249 338.228 133.007 338.702 135.586 339.713C138.166 340.724 140.511 342.251 142.48 344.2C144.471 346.143 146.034 348.482 147.067 351.065C148.101 353.648 148.582 356.42 148.48 359.2V404.54H159.68V359.18C159.68 346.86 168.22 338.32 180.68 338.32C193.42 338.32 201.68 346.58 201.68 359.32V404.54H213.16V356.1C213.16 340 199.44 328.24 181.38 328.24C170.32 328.24 161.38 332.58 155.38 340.56H155.1C150.2 333.28 140.26 328.24 130.18 328.24C120.1 328.24 111.7 331.88 106.52 338.18H106.24V330.34H95V404.54H106.48ZM263.05 406.64C274.95 406.64 284.89 402.58 290.49 395.3H290.76V404.54H301.96V330.34H290.49V372.2C290.49 386.48 280.13 396.56 265.71 396.56C250.59 396.56 242.05 387.56 242.05 372.34V330.34H230.57V374.54C230.57 384.34 233.51 392.18 239.39 397.92C245.27 403.66 253.11 406.64 263.05 406.64ZM356.89 406.64C377.47 406.64 390.89 397.96 390.89 384.8C390.89 371.64 381.65 365.62 355.47 361.7C336.57 358.9 331.25 356.24 331.25 349.52C331.25 342.8 339.53 338.04 351.76 338.04C364.5 338.04 374.02 344.34 376.82 354.42L387.46 352.32C384.94 338.6 369.54 328.24 351.76 328.24C332.86 328.24 320.26 337.06 320.26 349.94C320.26 362.26 328.94 368 355.26 371.64C373.18 374.02 379.76 377.64 379.76 384.94C379.76 392.24 371.08 396.84 356.94 396.84C340.28 396.84 330.48 389.84 328.1 376.84L317.46 379.22C319.65 395.86 335.19 406.64 356.89 406.64ZM443.18 406.64C459 406.64 471.6 399.92 479.44 387.04L470.34 381.04C464.04 391.54 455.08 396.86 443.18 396.86C427.78 396.86 415.18 386.22 415.18 371.52H481.68V367.32C481.68 344.5 465.02 328.26 443.04 328.26C419.94 328.26 403.56 344.36 403.56 367.88C403.56 391.4 419.38 406.64 443.18 406.64ZM469.92 362.26H415.32C416.16 348.4 427.64 338.04 443.04 338.04C457.18 338.04 469.08 348.82 469.92 362.26ZM529.47 406.64C541.37 406.64 551.31 402.58 556.91 395.3H557.19V404.54H568.39V330.34H556.91V372.2C556.91 386.48 546.55 396.56 532.13 396.56C517.01 396.56 508.47 387.56 508.47 372.34V330.34H496.99V374.54C496.99 384.34 499.93 392.18 505.81 397.92C511.69 403.66 519.53 406.64 529.47 406.64ZM599.47 404.54V359.32C599.47 346.86 608.01 338.32 620.47 338.32C623.239 338.228 625.997 338.702 628.576 339.713C631.156 340.724 633.501 342.251 635.47 344.2C637.461 346.143 639.024 348.482 640.057 351.065C641.091 353.648 641.572 356.42 641.47 359.2V404.54H652.76V359.18C652.76 346.86 661.3 338.32 673.76 338.32C686.5 338.32 694.76 346.58 694.76 359.32V404.54H706.24V356.1C706.24 340 692.52 328.24 674.46 328.24C663.4 328.24 654.46 332.58 648.46 340.56H648.18C643.28 333.28 633.34 328.24 623.26 328.24C613.18 328.24 604.78 331.88 599.6 338.18H599.32V330.34H588.12V404.54H599.47ZM874.9 406.64C890.72 406.64 903.32 399.92 911.16 387.04L902.06 381.04C895.76 391.54 886.84 396.84 874.94 396.84C859.54 396.84 846.94 386.2 846.94 371.5H913.44V367.3C913.44 344.48 896.78 328.24 874.8 328.24C851.7 328.24 835.32 344.34 835.32 367.86C835.32 391.38 851.14 406.64 874.94 406.64H874.9ZM901.64 362.26H847.04C847.88 348.4 859.36 338.04 874.76 338.04C888.94 338.04 900.84 348.82 901.68 362.26H901.64ZM941.64 404.54V362.68C941.64 348.4 952.56 338.32 968.24 338.32C982.8 338.32 991.9 347.42 991.9 362.12V404.54H1003.38V359.88C1003.38 341.12 989.1 328.24 968.24 328.24C957.46 328.24 947.24 332.44 941.64 339.58H941.36V330.34H930.16V404.54H941.64ZM1061.76 404.54V394.46H1050.14C1044.14 394.46 1042.02 392.64 1042.02 387.6V340H1065.82V330.34H1042.02V313.68H1030.54V330.34H1014.44V340H1030.54V387.46C1030.54 399.64 1036.14 404.54 1050 404.54H1061.76ZM784.48 407.14C805.9 407.14 821.16 393.42 821.16 374.38V299.38H809.68V308.76H809.4C803.1 301.48 792.88 297.28 781.26 297.28C759 297.28 742.2 314.22 742.2 336.48C742.2 359.58 758.3 375.68 781.82 375.68C793.72 375.68 804.08 371.2 809.82 363.78H810.1V373.86C810.1 387.44 799.32 397.1 784.48 397.1C771.48 397.1 763.34 392.1 757.74 380.44L747.94 385.44C754.24 399.54 766.7 407.14 784.48 407.14ZM782.48 365.56C764.56 365.56 753.64 354.5 753.64 336.44C753.64 319.08 764.84 307.32 781.78 307.32C797.6 307.32 809.64 317.82 809.64 330.84V342.04C809.68 355.06 797.64 365.54 782.52 365.54L782.48 365.56ZM0 45.92C0 69.02 11.06 84.14 28 84.14C44.38 84.14 52.64 73.36 58.8 43.26C63.28 21.42 67.06 14.7 75.46 14.7C84.98 14.7 91.46 24.36 91.46 38.5C91.46 54.18 83.34 64.96 69.34 67.62L71.68 79.54C89.76 76.44 102.2 60.06 102.2 38.64C102.2 17.5 91 2.64 75.2 2.64C60.76 2.66 53.62 12.32 48.02 40.32C43.02 64.26 38.36 71.96 27.72 71.96C17.08 71.96 10.76 61.88 10.76 46.06C10.76 25.48 19.76 14.28 38.34 11.9L36.54 0C13.44 2.38 0 19.18 0 45.92ZM2.1 140.32H12.18V128.7C12.18 122.7 14 120.58 19.04 120.58H66.64V144.38H76.3V120.54H92.96V109.1H76.3V93H66.64V109.1H19.18C7 109.1 2.1 114.7 2.1 128.56V140.32ZM0 179.15C0 190.91 4.62 201.69 11.48 206.73V207.01H2.1V218.07H54.18C68.88 218.07 78.4 206.07 78.4 187.13C78.4 177.75 76.02 169.91 71.4 163.61C69.2277 160.574 66.4769 157.996 63.3055 156.026C60.1341 154.056 56.6047 152.732 52.92 152.13L50.54 163.19C61.74 165.43 68.32 174.25 68.32 187.13C68.32 198.47 63.7 205.75 56.56 205.75C50.82 205.75 47.88 200.29 45.22 184.47C41.44 160.81 35 151.71 21.98 151.71C8.4 151.71 0 161.93 0 179.15ZM10.22 181.54C10.22 169.22 14 163.34 21.98 163.34C29.26 163.34 33.18 169.92 35.98 186.58C38.08 198.9 40.18 204.22 43.98 206.32V206.6H27.98C18.62 206.59 10.22 194.69 10.22 181.54ZM0 273.84C0 285.46 4.2 295.68 11.34 301.7V301.98H2.1V313.04H104.3V301.54H66.92V301.26C74.2 295.1 78.4 284.74 78.4 273.12C78.4 250.86 61.46 234.06 39.2 234.06C16.24 234.08 0 250.74 0 273.84ZM10.08 274.54C10.08 256.76 21.42 245.54 39.2 245.54C56.98 245.54 68.32 256.88 68.32 273.82C68.32 289.54 57.82 301.54 44.76 301.54H33.6C20.58 301.54 10.08 289.66 10.08 274.54ZM0 367.96C0 388.54 8.68 401.96 21.84 401.96C35 401.96 41.02 392.74 44.94 366.54C47.74 347.64 50.4 342.32 57.12 342.32C63.84 342.32 68.6 350.58 68.6 362.76C68.6 375.5 62.3 385.02 52.22 387.82L54.32 398.46C68.04 395.94 78.4 380.54 78.4 362.76C78.4 343.86 69.58 331.26 56.7 331.26C44.38 331.26 38.64 339.94 35 366.26C32.62 384.18 29 390.76 21.7 390.76C14.4 390.76 9.76 382.1 9.76 367.96C9.76 351.3 16.76 341.5 29.76 339.12L27.38 328.48C10.76 330.72 0 346.26 0 367.96Z" fill="#2A2A2A"/>
</g>
<defs>
<clipPath id="clip0_6_310">
<rect width="1065.85" height="407.14" fill="white"/>
</clipPath>
</defs>
</svg>
