<svg xmlns="http://www.w3.org/2000/svg" version="1.1" xmlns:xlink="http://www.w3.org/1999/xlink" xmlns:svgjs="http://svgjs.dev/svgjs" width="194" height="160"><svg width="194" height="160" viewBox="0 0 194 160" fill="none" xmlns="http://www.w3.org/2000/svg">
<g clip-path="url(#clip0_6_294)">
<path d="M0 0H194V160H92V94H0V0Z" fill="#FF5000"></path>
<path d="M20 54.74L24.92 54C25.94 65 32.81 70.6 45.23 70.6C55.07 70.6 61.23 66.46 61.23 59.89C61.23 53.32 56.39 50.2 42.23 47.39C26.92 44.39 21.53 40.51 21.53 32.85C21.56 24 29.53 18 41.24 18C52.95 18 62 24.88 63.5 35L58.58 36C57.33 27.63 50.69 22.48 41.24 22.48C32.42 22.48 26.48 26.54 26.48 32.71C26.48 37.87 30.62 40.37 43.48 42.95C60 46.29 66.24 50.83 66.24 59.74C66.24 69.04 57.96 75.06 45.15 75.06C30.23 75.06 20.94 67.55 20 54.74ZM91.26 24.45H70.17V19.97H117.39V24.45H96.3V74.07H91.26V24.45ZM159.67 61.94H126.35L120.85 74.07H115.42L140.34 20H145.6L170.51 74.1H165.17L159.67 61.94ZM157.78 57.69L143.09 25.22H142.93L128.23 57.69H157.78ZM112.47 84.89H119.15L142.93 131.35H143.08L166.78 84.89H173.46V139H168.49V91.7H168.34L144.02 139H141.92L117.6 91.7H117.44V139H112.47V84.89ZM167.56 25.87H174.45V18.98H167.56V25.87Z" fill="#2A2A2A"></path>
</g>
<defs>
<clipPath id="SvgjsClipPath1001">
<rect width="194" height="160" fill="white"></rect>
</clipPath>
</defs>
</svg><style>@media (prefers-color-scheme: light) { :root { filter: none; } }
@media (prefers-color-scheme: dark) { :root { filter: none; } }
</style></svg>