<svg width="98" height="51" viewBox="0 0 98 51" fill="none" xmlns="http://www.w3.org/2000/svg">
<g id="Clip path group">
<mask id="mask0_25_535" style="mask-type:luminance" maskUnits="userSpaceOnUse" x="0" y="0" width="98" height="51">
<g id="aiclip0_136_1097">
<path id="Vector" d="M0 0.147125H98V50.1458H0V0.147125Z" fill="white"/>
</g>
</mask>
<g mask="url(#mask0_25_535)">
<g id="Group">
<path id="Vector_2" d="M69.4644 13.9887H71.2117V2.16064H76.5762V0.658106H64.1038V2.16457H69.4683V13.9926L69.4644 13.9887ZM50.0035 13.9887H51.7509V2.98155H51.792L60.3425 13.9887H62.2712V0.658106H60.5062V11.6663H60.465L51.9145 0.657125H50.0035V13.9887ZM37.5085 13.9887H47.7299V12.4832H39.2568V7.81576H47.0772V6.38678H39.2568V2.16064H47.7299V0.658106H37.5085V13.9887ZM28.7542 14.2741C32.88 14.2741 35.4574 11.8958 35.4574 8.61901V7.45778H28.959V8.86616H33.6924C33.6748 10.9984 31.8637 12.7716 28.7552 12.7716C25.6466 12.7716 23.372 10.5805 23.372 7.32538C23.372 4.06922 25.628 1.87916 28.7552 1.87916C31.1924 1.87916 33.0211 3.15514 33.6522 5.40209L35.3809 5.00193C34.7488 2.29599 32.1077 0.372702 28.7581 0.372702C24.5323 0.372702 21.5649 3.34345 21.5649 7.32538C21.5649 11.3073 24.5284 14.278 28.7581 14.278M97.8177 9.23886L98 0.173606L96.3928 0.147125L96.2419 7.57155L83.6293 7.34597L83.595 8.98386L97.8148 9.23886H97.8177ZM93.3744 23.9072L96.9465 14.9303L95.4442 14.4055L92.4836 21.8447L87.8207 20.2137L90.5549 13.3444L89.1261 12.8442L86.3919 19.7125L82.1671 18.2345L85.1267 10.7953L83.6244 10.2706L80.0523 19.2466L93.3744 23.9072ZM87.0857 33.4746C89.3495 31.0541 89.6602 27.9176 87.6796 25.5275L86.2331 26.4671C87.8011 28.5433 87.5238 30.7206 85.8764 32.4801C83.7626 34.7438 80.4933 34.9419 77.8639 32.7861C75.2375 30.6265 75.0219 27.5626 77.1368 25.298C78.7685 23.5522 80.9725 22.9294 83.1314 23.9445L83.9478 22.4635C81.3919 21.1248 78.1638 21.9143 75.9314 24.3074C73.1041 27.3291 73.4637 31.4229 76.6732 34.0592C79.8818 36.6955 84.2555 36.4935 87.0818 33.4707M68.1668 44.8633L63.0875 35.7059L66.3852 34.0994C69.4497 32.6076 71.8948 33.303 73.6127 36.3944C75.3747 39.5701 74.528 41.7651 71.4273 43.2774L68.1659 44.8663L68.1668 44.8633ZM67.3574 46.9534L72.225 44.5819C76.1725 42.6586 77.4484 39.6329 75.2189 35.6078C73.0747 31.7377 69.6133 30.8266 65.7031 32.7322L60.7992 35.1214L67.3574 46.9494V46.9534ZM51.7362 50.1428L61.8635 48.8737L61.6518 47.381L53.2571 48.4314L52.5966 43.8061L60.3504 42.8351L60.1495 41.4199L52.3967 42.3908L51.7989 38.2L60.1945 37.1496L59.9829 35.6578L49.8555 36.927L51.7362 50.1428ZM40.0908 48.1126C36.9009 47.4408 35.2055 44.8604 35.9699 41.6641C36.7343 38.4668 39.4421 36.8122 42.632 37.483C45.8228 38.1549 47.5182 40.7353 46.7538 43.9316C45.9894 47.1279 43.2817 48.7845 40.0908 48.1126ZM39.738 49.5799C44.001 50.4763 47.5623 48.1989 48.4973 44.2965C49.4322 40.394 47.2468 36.9093 42.9848 36.0119C38.7443 35.1223 35.1389 37.3889 34.2079 41.2914C33.273 45.1939 35.4985 48.6864 39.7419 49.5789M22.7752 43.3402C26.1768 45.5244 29.742 44.9261 31.7157 42.2202L32.4164 41.26L27.0519 37.8175L26.2032 38.9787L30.1095 41.4865C28.8071 43.2362 26.2473 43.7404 23.6837 42.0946C21.1023 40.4391 20.5604 37.4379 22.5224 34.7496C24.4961 32.0476 27.6644 31.4494 30.2467 33.1049C32.2567 34.3946 32.9995 36.416 32.1646 38.6031L33.8306 39.1876C34.939 36.621 33.9188 33.6365 31.1513 31.8632C27.6644 29.6271 23.4289 30.5068 21.0279 33.7934C18.6318 37.076 19.2874 41.1001 22.7752 43.3363M7.97916 29.4525L9.03364 30.7569L13.8111 27.3664L18.5445 33.2265L19.7578 32.3634L15.0244 26.5033L19.0904 23.6169L24.2168 29.9645L25.4967 29.0563L19.3168 21.4053L7.97916 29.4525ZM8.8886 14.8557L13.8631 13.2453L15.5065 17.7117C16.2082 19.6213 15.7104 20.8276 14.0787 21.3563C12.4274 21.8918 11.2367 21.2278 10.5468 19.3565L8.8886 14.8547V14.8557ZM9.28158 20.4726C10.3243 22.7754 12.2716 23.6934 14.6539 22.9245C17.1686 22.1105 18.0585 20.0312 17.0608 17.3292L14.8058 11.2082L1.36514 15.5648L1.93648 17.1125L7.37156 15.352L8.62596 18.7543L4.36982 23.717L5.03426 25.5186L9.26296 20.4824L9.28256 20.4755V20.4716L9.28158 20.4726ZM0 0.725779L0.06272 10.303L1.66992 10.2932L1.617 2.34895L6.5954 2.31855L6.6444 9.6498L8.16928 9.63999L8.12028 2.30776L12.6312 2.2803L12.6832 10.2235L14.2904 10.2137L14.2267 0.634568L0 0.725779Z" fill="white"/>
</g>
</g>
</g>
</svg>
