<svg width="38" height="29" viewBox="0 0 38 29" fill="none" xmlns="http://www.w3.org/2000/svg">
<g clip-path="url(#clip0_6_314)">
<path d="M21.676 10.721C15.496 12.823 11.139 17.029 11.009 20.648L10.047 21.574L8.755 22.779L10.514 22.947L11.662 23.066C12.048 23.702 12.663 24.257 13.404 24.685L12.727 26.45C12.396 26.478 12.117 26.659 12.043 26.937C11.918 27.32 12.073 27.779 12.456 27.904C12.84 28.029 13.297 27.873 13.422 27.49C13.574 27.183 13.47 26.879 13.214 26.626L13.84 24.965C14.249 25.167 14.734 25.341 15.22 25.518L14.943 26.208C14.612 26.234 14.333 26.416 14.258 26.695C14.133 27.079 14.289 27.536 14.673 27.661C15.056 27.786 15.513 27.631 15.638 27.248C15.789 26.939 15.685 26.636 15.428 26.382L15.755 25.59C18.639 26.313 22.486 26.11 26.53 24.735C33.625 22.321 38.333 17.139 37.009 13.252C35.685 9.358 28.77 8.306 21.676 10.721Z" fill="#2A2A2A"/>
<path d="M20.527 14.6C20.527 14.6 4.32303 7.25999 13.185 2.03299C22.073 -3.12001 20.527 14.6 20.527 14.6Z" fill="white"/>
<path d="M13.107 1.80301C11.177 2.88501 10.191 4.24101 10.277 5.74401C10.535 10.255 20.018 14.604 20.427 14.805L20.81 14.93L20.859 14.574C20.882 14.141 21.759 3.71101 17.946 1.26401C16.591 0.533005 15.013 0.644005 13.107 1.80301ZM10.997 6.60701C10.893 6.30201 10.789 5.99701 10.787 5.74201C10.703 4.49401 11.587 3.34201 13.288 2.33601C14.99 1.33301 16.467 1.17101 17.541 1.82701C18.412 2.38001 19.004 3.37101 19.419 4.59201C20.534 7.87201 20.336 12.792 20.218 14.196C18.66 13.364 12.165 10.04 10.997 6.60701Z" fill="#2A2A2A"/>
<path d="M13.958 3.302C13.805 3.354 13.781 3.531 13.833 3.685L20.223 14.706C20.274 14.857 20.453 14.884 20.605 14.83C20.757 14.779 20.782 14.601 20.73 14.447L14.34 3.427C14.289 3.273 14.111 3.251 13.958 3.302Z" fill="#2A2A2A"/>
<path d="M17.0651 2.924L16.2271 7.465C16.2031 7.645 16.3311 7.772 16.4331 7.822C16.6121 7.845 16.7391 7.718 16.7891 7.617L17.6271 3.075C17.6511 2.894 17.5231 2.768 17.4211 2.719C17.2421 2.695 17.0901 2.746 17.0651 2.924ZM12.1721 7.059C12.1221 7.162 12.1991 7.391 12.3781 7.413L17.0521 9.143C17.1551 9.195 17.3841 9.115 17.4081 8.936C17.4591 8.833 17.3811 8.606 17.2021 8.581L12.5281 6.853C12.3491 6.829 12.1971 6.881 12.1721 7.059Z" fill="#2A2A2A"/>
<path d="M20.448 14.116C20.448 14.116 2.77102 15.706 7.91502 6.804C13.084 -2.021 20.448 14.116 20.448 14.116Z" fill="white"/>
<path d="M7.70909 6.70399C6.57509 8.62399 6.45809 10.279 7.23009 11.55C9.64909 15.408 20.0671 14.503 20.5511 14.422L20.9591 14.368L20.8291 13.986C20.6231 13.631 16.2571 4.05099 11.6931 3.90099C10.1391 3.83499 8.76909 4.81199 7.70909 6.70399ZM7.71309 11.215C7.55809 11.013 7.50709 10.859 7.42909 10.63C7.09109 9.63999 7.36409 8.44099 8.22109 6.95599C9.25609 5.24099 10.3961 4.34299 11.6201 4.43599C15.3421 4.61699 19.1601 12.086 20.0891 13.813C18.1031 13.979 9.64409 14.388 7.71309 11.215Z" fill="#2A2A2A"/>
<path d="M20.6251 13.886L13.7451 9.928L12.2651 5.579C12.2131 5.428 12.0351 5.402 11.9591 5.43C11.8061 5.481 11.7821 5.659 11.8081 5.736L13.1061 9.55L9.70506 7.56C9.60206 7.508 9.42406 7.48399 9.32306 7.687C9.27206 7.78999 9.24906 7.97 9.45306 8.068L14.1071 10.742L9.83006 11.432C9.67806 11.484 9.55106 11.612 9.60306 11.765C9.65506 11.916 9.78306 12.043 9.93606 11.993L14.8501 11.172L20.4521 14.374C20.5541 14.423 20.7331 14.447 20.8331 14.242C20.8061 14.166 20.7271 13.938 20.6251 13.886Z" fill="#2A2A2A"/>
<path d="M24.665 12.001C26.144 12.094 27.387 11.245 28.093 10.067C28.53 10.601 29.143 10.903 29.907 10.898C31.386 10.99 32.552 9.914 32.645 8.433C32.737 6.955 31.661 5.79 30.181 5.696C29.314 5.651 28.578 5.986 28.021 6.601C27.402 5.535 26.301 4.804 25.002 4.736C23.013 4.645 21.315 6.159 21.226 8.148C21.163 10.214 22.677 11.911 24.665 12.001Z" fill="white"/>
<path d="M20.997 8.22599C20.9681 8.73887 21.0409 9.25242 21.2114 9.73701C21.3818 10.2216 21.6465 10.6677 21.9902 11.0495C22.3339 11.4313 22.7497 11.7412 23.2138 11.9615C23.6779 12.1818 24.181 12.3081 24.694 12.333C26.069 12.375 27.391 11.755 28.173 10.551C28.66 10.983 29.247 11.208 29.935 11.23C30.726 11.3 31.463 10.966 31.996 10.528C32.579 9.98799 32.931 9.27399 32.926 8.50699C32.998 7.71999 32.661 6.98199 32.225 6.44799C31.687 5.86699 30.97 5.51199 30.206 5.51799C29.415 5.44599 28.679 5.78299 28.096 6.32099C27.4 5.28099 26.352 4.70199 25.052 4.63299C22.936 4.41599 21.035 6.08599 20.997 8.22599ZM21.667 9.44499C21.5356 9.05174 21.4813 8.63682 21.507 8.22299C21.573 6.41299 23.193 4.92399 25.03 5.06699C26.151 5.10999 27.226 5.76599 27.741 6.78299L27.948 7.13699L28.176 6.80499C28.655 6.21599 29.317 5.90699 30.107 5.97899C30.721 6.02599 31.307 6.25199 31.718 6.70699C32.129 7.16399 32.335 7.77299 32.289 8.38799C32.241 8.99699 32.016 9.58699 31.559 9.99699C31.3321 10.2004 31.0664 10.3558 30.7778 10.4539C30.4893 10.552 30.1839 10.5908 29.88 10.568C29.268 10.522 28.681 10.295 28.271 9.83799L27.989 9.50899L27.787 9.91899C27.156 11.069 25.963 11.815 24.664 11.747C23.261 11.626 22.109 10.743 21.667 9.44499Z" fill="#2A2A2A"/>
<path d="M27.264 7.88201C27.395 8.51801 26.993 9.08001 26.355 9.21201C25.719 9.34401 25.155 8.94001 25.023 8.30401C24.892 7.66901 25.296 7.10501 25.933 6.97301C26.494 6.86601 27.159 7.32201 27.264 7.88201ZM31.979 7.97901C32.111 8.61501 31.708 9.17801 31.071 9.31001C30.434 9.44201 29.871 9.03701 29.739 8.39901C29.608 7.76401 30.011 7.20201 30.649 7.07001C31.285 6.93801 31.875 7.41801 31.979 7.97901ZM1.49797 19.971C1.42197 19.996 1.37197 20.1 1.32097 20.201C1.01897 20.814 1.31097 22.673 2.08897 24.707C2.78997 26.766 3.76897 28.393 4.38197 28.693C4.48297 28.744 4.58597 28.794 4.66197 28.767C5.34897 28.534 4.87497 26.14 4.14797 24.003C3.34497 21.895 2.18397 19.734 1.49797 19.971ZM4.40597 28.516C3.81797 28.29 2.91597 26.639 2.24097 24.655C1.56597 22.673 1.19797 20.841 1.52597 20.302C1.57697 20.199 1.57697 20.199 1.65197 20.173C2.03397 20.041 3.16497 21.616 3.99597 24.059C4.85297 26.577 5.04297 28.383 4.58497 28.539C4.50897 28.564 4.43197 28.591 4.40597 28.516ZM3.97397 20.746C3.51697 20.9 3.80697 22.505 4.29997 23.953C4.76697 25.328 5.38597 26.394 5.79497 26.596C5.89797 26.647 5.97297 26.62 6.04997 26.596C6.50697 26.438 6.21697 24.834 5.72397 23.385C5.15497 21.96 4.43297 20.588 3.97397 20.746ZM5.89597 26.391C5.58997 26.243 5.02297 25.328 4.42797 23.828C3.82997 22.07 3.77197 20.9 4.00097 20.82C4.22997 20.742 4.89897 21.706 5.54597 23.359C6.14297 25.114 6.20197 26.287 5.97297 26.365C5.92197 26.466 5.92197 26.466 5.89597 26.391ZM5.73597 21.166C5.35497 21.296 5.71897 22.619 5.95297 23.307C6.26497 24.223 6.67697 24.934 6.98397 25.084C7.08597 25.135 7.08597 25.135 7.16197 25.107C7.54397 24.976 7.17797 23.654 6.94397 22.967C6.63197 22.051 6.22097 21.341 5.91397 21.189C5.81297 21.141 5.73597 21.166 5.73597 21.166ZM7.03397 24.98C6.82897 24.879 6.44397 24.246 6.10597 23.253C5.69097 22.031 5.71197 21.345 5.78797 21.315C5.99297 21.418 6.37897 22.053 6.71697 23.044C7.20797 24.243 7.18697 24.93 7.03397 24.98Z" fill="#2A2A2A"/>
<path d="M2.79803 20.038C2.11103 20.271 2.58503 22.663 3.31203 24.8C4.03903 26.938 5.17303 29.02 5.86003 28.785C6.54603 28.553 6.07303 26.158 5.34503 24.023C4.54303 21.913 3.41003 19.83 2.79803 20.038ZM3.46503 24.749C2.60903 22.23 2.41903 20.424 2.87603 20.268C3.33303 20.112 4.38903 21.71 5.22003 24.153C6.07703 26.671 6.26603 28.479 5.80903 28.634C5.42703 28.764 4.29603 27.189 3.46503 24.749ZM5.19903 20.839C5.12203 20.864 5.04603 20.891 4.99603 20.992C4.79403 21.402 4.95503 22.624 5.49903 23.971C5.96703 25.346 6.58403 26.412 6.99403 26.614C7.09603 26.665 7.17303 26.637 7.24903 26.612C7.32603 26.588 7.40203 26.559 7.45203 26.46C7.65303 26.051 7.49303 24.827 6.94903 23.481C6.48103 22.108 5.86303 21.041 5.45403 20.838C5.35203 20.787 5.27503 20.812 5.19903 20.839ZM7.12003 26.484C6.81303 26.333 6.22103 25.341 5.65103 23.919C5.13203 22.393 5.02403 21.323 5.17403 21.018L5.22403 20.915C5.22403 20.915 5.30003 20.891 5.32603 20.964C5.63303 21.117 6.20003 22.029 6.79503 23.529C7.31503 25.056 7.42303 26.126 7.27303 26.431L7.22203 26.535L7.12003 26.484ZM6.96003 21.26C6.57803 21.393 6.94303 22.713 7.17703 23.401C7.41103 24.089 8.00503 25.335 8.38603 25.203C8.76803 25.073 8.42803 23.828 8.19503 23.141L8.16803 23.065C7.85603 22.149 7.44403 21.438 7.13803 21.288C7.03603 21.234 7.03603 21.234 6.96003 21.26ZM7.33003 23.35C6.91503 22.127 6.93503 21.44 7.01203 21.413C7.21703 21.514 7.60303 22.148 7.94003 23.141C8.33003 24.287 8.33503 25.05 8.25903 25.076C8.18103 25.104 7.72003 24.492 7.33003 23.35Z" fill="#2A2A2A"/>
<path d="M31.1611 19.581C30.4561 21.014 27.8311 21.055 25.2751 19.796C22.7181 18.538 21.2001 16.329 21.9061 14.898" fill="white"/>
<path d="M31.4141 19.324L21.7761 14.516L21.6241 14.824C21.2711 15.54 21.5071 16.48 22.1761 17.443C22.8451 18.409 23.8951 19.244 25.1481 19.922C26.8861 20.776 28.7741 21.069 30.0721 20.632C30.6811 20.423 31.1631 20.088 31.3381 19.603L31.4141 19.324ZM28.9371 18.551L27.9541 20.416C27.2401 20.316 26.3971 20.096 25.6811 19.743L26.8651 17.467L28.9371 18.551ZM21.9571 15.05L24.1051 16.108L23.1481 18.051C22.0201 16.986 21.5551 15.868 21.9571 15.05ZM23.4051 18.305L24.4111 16.26L26.4831 17.342L25.2981 19.618L25.1961 19.566C24.5571 19.188 23.9181 18.811 23.4051 18.305ZM28.3891 20.438L29.2441 18.701L30.8801 19.507C30.636 19.8686 30.2791 20.1394 29.8651 20.277C29.3931 20.4483 28.8869 20.5035 28.3891 20.438Z" fill="#2A2A2A"/>
</g>
<defs>
<clipPath id="clip0_6_314">
<rect width="37" height="29" fill="white" transform="translate(0.910034)"/>
</clipPath>
</defs>
</svg>
