<svg width="100" height="52" viewBox="0 0 100 52" fill="none" xmlns="http://www.w3.org/2000/svg">
<g clip-path="url(#clip0_6_322)">
<mask id="mask0_6_322" style="mask-type:luminance" maskUnits="userSpaceOnUse" x="0" y="0" width="100" height="52">
<path d="M0 0.150002H100V51.129H0V0.150002Z" fill="white"/>
</mask>
<g mask="url(#mask0_6_322)">
<path d="M70.882 14.263H72.665V2.203H78.139V0.671002H65.412V2.207H70.886V14.267L70.882 14.263ZM51.024 14.263H52.807V3.04H52.849L61.574 14.263H63.542V0.671002H61.741V11.895H61.699L52.974 0.670002H51.024V14.263ZM38.274 14.263H48.704V12.728H40.058V7.969H48.038V6.512H40.058V2.203H48.704V0.671002H38.274V14.263ZM29.341 14.554C33.551 14.554 36.181 12.129 36.181 8.788V7.604H29.55V9.04H34.38C34.362 11.214 32.514 13.022 29.342 13.022C26.17 13.022 23.849 10.788 23.849 7.469C23.849 4.149 26.151 1.916 29.342 1.916C31.829 1.916 33.695 3.217 34.339 5.508L36.103 5.1C35.458 2.341 32.763 0.380002 29.345 0.380002C25.033 0.380002 22.005 3.409 22.005 7.469C22.005 11.529 25.029 14.558 29.345 14.558M99.814 9.42L100 0.177002L98.36 0.150002L98.206 7.72L85.336 7.49L85.301 9.16L99.811 9.42H99.814ZM95.28 24.376L98.925 15.223L97.392 14.688L94.371 22.273L89.613 20.61L92.403 13.606L90.945 13.096L88.155 20.099L83.844 18.592L86.864 11.007L85.331 10.472L81.686 19.624L95.28 24.376ZM88.863 34.131C91.173 31.663 91.49 28.465 89.469 26.028L87.993 26.986C89.593 29.103 89.31 31.323 87.629 33.117C85.472 35.425 82.136 35.627 79.453 33.429C76.773 31.227 76.553 28.103 78.711 25.794C80.376 24.014 82.625 23.379 84.828 24.414L85.661 22.904C83.053 21.539 79.759 22.344 77.481 24.784C74.596 27.865 74.963 32.039 78.238 34.727C81.512 37.415 85.975 37.209 88.859 34.127M69.558 45.743L64.375 36.406L67.74 34.768C70.867 33.247 73.362 33.956 75.115 37.108C76.913 40.346 76.049 42.584 72.885 44.126L69.557 45.746L69.558 45.743ZM68.732 47.874L73.699 45.456C77.727 43.495 79.029 40.41 76.754 36.306C74.566 32.36 71.034 31.431 67.044 33.374L62.04 35.81L68.732 47.87V47.874ZM52.792 51.126L63.126 49.832L62.91 48.31L54.344 49.381L53.67 44.665L61.582 43.675L61.377 42.232L53.466 43.222L52.856 38.949L61.423 37.878L61.207 36.357L50.873 37.651L52.792 51.126ZM40.909 49.056C37.654 48.371 35.924 45.74 36.704 42.481C37.484 39.221 40.247 37.534 43.502 38.218C46.758 38.903 48.488 41.534 47.708 44.793C46.928 48.052 44.165 49.741 40.909 49.056ZM40.549 50.552C44.899 51.466 48.533 49.144 49.487 45.165C50.441 41.186 48.211 37.633 43.862 36.718C39.535 35.811 35.856 38.122 34.906 42.101C33.952 46.08 36.223 49.641 40.553 50.551M23.24 44.19C26.711 46.417 30.349 45.807 32.363 43.048L33.078 42.069L27.604 38.559L26.738 39.743L30.724 42.3C29.395 44.084 26.783 44.598 24.167 42.92C21.533 41.232 20.98 38.172 22.982 35.431C24.996 32.676 28.229 32.066 30.864 33.754C32.915 35.069 33.673 37.13 32.821 39.36L34.521 39.956C35.652 37.339 34.611 34.296 31.787 32.488C28.229 30.208 23.907 31.105 21.457 34.456C19.012 37.803 19.681 41.906 23.24 44.186M8.142 30.03L9.218 31.36L14.093 27.903L18.923 33.878L20.161 32.998L15.331 27.023L19.48 24.08L24.711 30.552L26.017 29.626L19.711 21.825L8.142 30.03ZM9.07 15.147L14.146 13.505L15.823 18.059C16.539 20.006 16.031 21.236 14.366 21.775C12.681 22.321 11.466 21.644 10.762 19.736L9.07 15.146V15.147ZM9.471 20.874C10.535 23.222 12.522 24.158 14.953 23.374C17.519 22.544 18.427 20.424 17.409 17.669L15.108 11.428L1.393 15.87L1.976 17.448L7.522 15.653L8.802 19.122L4.459 24.182L5.137 26.019L9.452 20.884L9.472 20.877V20.873L9.471 20.874ZM0 0.740002L0.064 10.505L1.704 10.495L1.65 2.395L6.73 2.364L6.78 9.839L8.336 9.829L8.286 2.353L12.889 2.325L12.942 10.424L14.582 10.414L14.517 0.647002L0 0.740002Z" fill="#2A2A2A"/>
</g>
</g>
<defs>
<clipPath id="clip0_6_322">
<rect width="100" height="52" fill="white"/>
</clipPath>
</defs>
</svg>
