<svg width="108" height="32" viewBox="0 0 108 32" fill="none" xmlns="http://www.w3.org/2000/svg">
<g clip-path="url(#clip0_6_316)">
<path d="M54.6411 6.58H57.1211V22.58C57.1916 23.8382 57.0113 25.098 56.5907 26.2859C56.1701 27.4739 55.5176 28.5664 54.6711 29.5C53.7747 30.3467 52.7139 31.0002 51.5545 31.42C50.3951 31.8397 49.1618 32.0167 47.9311 31.94C45.831 32.0134 43.7628 31.4105 42.0311 30.22C40.4424 29.0911 39.3359 27.4064 38.9311 25.5H42.7011C43.0448 26.4811 43.7394 27.3004 44.6511 27.8C45.635 28.3586 46.7498 28.6451 47.8811 28.63C48.6204 28.6684 49.3593 28.5496 50.0494 28.2817C50.7394 28.0137 51.3649 27.6026 51.8845 27.0754C52.4041 26.5482 52.8062 25.9169 53.0641 25.2231C53.3221 24.5292 53.4301 23.7886 53.3811 23.05V22.2C51.9121 23.4295 50.1041 24.1836 48.1967 24.3622C46.2894 24.5408 44.3728 24.1355 42.7011 23.2C41.3585 22.4136 40.245 21.2898 39.4711 19.94C38.6668 18.5307 38.2526 16.9325 38.2711 15.31C38.2566 13.6892 38.6669 12.0929 39.4611 10.68C40.2272 9.29013 41.3578 8.13541 42.7311 7.34C44.1311 6.52971 45.7236 6.11172 47.3411 6.13C48.6162 6.1216 49.8794 6.37695 51.0511 6.88C52.1818 7.35817 53.2028 8.06261 54.0511 8.95L54.6411 6.58ZM43.7211 19.31C44.5077 20.1176 45.5182 20.671 46.6224 20.8987C47.7265 21.1264 48.8735 21.0179 49.9154 20.5874C50.9573 20.1569 51.8463 19.424 52.4676 18.4833C53.0889 17.5426 53.4141 16.4373 53.4011 15.31C53.4332 14.5487 53.3109 13.7888 53.0416 13.076C52.7724 12.3631 52.3618 11.7121 51.8344 11.1621C51.3071 10.6121 50.6739 10.1744 49.9731 9.87547C49.2722 9.57648 48.5181 9.42236 47.7561 9.42236C46.9941 9.42236 46.24 9.57648 45.5392 9.87547C44.8383 10.1744 44.2051 10.6121 43.6778 11.1621C43.1505 11.7121 42.7398 12.3631 42.4706 13.076C42.2013 13.7888 42.0791 14.5487 42.1111 15.31C42.095 16.051 42.2294 16.7875 42.5062 17.475C42.7829 18.1625 43.1962 18.7868 43.7211 19.31ZM61.5011 24.94V0H65.2611V24.94H61.5011ZM83.7611 23.15C82.9524 23.91 81.9993 24.4999 80.9583 24.8846C79.9173 25.2694 78.8097 25.4413 77.7011 25.39C76.5908 25.4426 75.4813 25.2714 74.4385 24.8866C73.3958 24.5018 72.441 23.9112 71.6311 23.15C70.8574 22.3615 70.2554 21.4213 69.863 20.3887C69.4706 19.356 69.2963 18.2533 69.3511 17.15V6.58H73.1111V16.66C73.0347 18.0233 73.4738 19.3654 74.3411 20.42C74.7675 20.8794 75.2891 21.2401 75.8695 21.4768C76.4499 21.7134 77.075 21.8203 77.7011 21.79C78.3252 21.8209 78.9484 21.7132 79.5259 21.4746C80.1034 21.236 80.6209 20.8724 81.0411 20.41C81.899 19.3547 82.3339 18.0181 82.2611 16.66V6.58H86.0311V17.19C86.0816 18.286 85.9062 19.3807 85.5157 20.406C85.1252 21.4313 84.5279 22.3653 83.7611 23.15ZM107.561 15.81C107.557 16.2215 107.527 16.6323 107.471 17.04H92.5711C92.7198 18.4064 93.3839 19.6647 94.4282 20.5584C95.4724 21.4522 96.8181 21.9141 98.1911 21.85C99.2089 21.8649 100.214 21.6205 101.111 21.14C101.948 20.6684 102.64 19.9768 103.111 19.14H107.111C106.451 20.9836 105.24 22.5793 103.641 23.71C102.042 24.8186 100.137 25.3991 98.1911 25.37C96.94 25.4009 95.6961 25.1705 94.539 24.6936C93.3819 24.2166 92.3371 23.5036 91.4711 22.6C90.5821 21.697 89.884 20.6242 89.4184 19.4456C88.9528 18.2671 88.7293 17.0068 88.7611 15.74C88.7392 14.0245 89.163 12.3326 89.9911 10.83C90.7822 9.38486 91.9548 8.18458 93.3811 7.36C94.8442 6.52165 96.505 6.09006 98.1911 6.11C99.9134 6.08016 101.61 6.53029 103.091 7.41C104.503 8.25422 105.649 9.47713 106.401 10.94C107.182 12.4432 107.581 14.116 107.561 15.81ZM98.1911 9.53C96.8934 9.49415 95.625 9.91931 94.6111 10.73C93.6153 11.5457 92.9303 12.6791 92.6711 13.94H103.771C103.494 12.6548 102.789 11.5018 101.771 10.67C100.744 9.88982 99.48 9.48723 98.1911 9.53Z" fill="#FFF"/>
<path d="M26.9312 7.27C26.8843 6.08073 26.3691 4.95821 25.4981 4.14712C24.6271 3.33603 23.4707 2.90213 22.2812 2.94H5.57115C4.38326 2.90482 3.22949 3.33992 2.36064 4.15073C1.49178 4.96154 0.978063 6.08251 0.931152 7.27L0.931152 20.61C0.978063 21.7975 1.49178 22.9185 2.36064 23.7293C3.22949 24.5401 4.38326 24.9752 5.57115 24.94H15.5712C15.6932 24.9375 15.8102 24.8914 15.9012 24.81C15.944 24.7709 15.9778 24.7229 16.0003 24.6693C16.0227 24.6158 16.0333 24.558 16.0312 24.5V14.4C16.0333 14.342 16.0227 14.2842 16.0003 14.2307C15.9778 14.1771 15.944 14.1291 15.9012 14.09C15.8102 14.0086 15.6932 13.9625 15.5712 13.96H12.4112C12.2891 13.9625 12.1721 14.0086 12.0812 14.09C12.037 14.1286 12.0016 14.1763 11.9775 14.2298C11.9533 14.2833 11.9409 14.3413 11.9412 14.4V20.94H5.93115C5.68005 20.9007 5.44791 20.7827 5.26819 20.603C5.08847 20.4232 4.97046 20.1911 4.93115 19.94V7.94C4.97605 7.69126 5.09589 7.46219 5.27462 7.28346C5.45334 7.10474 5.68242 6.9849 5.93115 6.94H21.9812C22.2317 6.98075 22.463 7.09924 22.6425 7.2787C22.8219 7.45816 22.9404 7.6895 22.9812 7.94V20.94H19.4012C19.3421 20.9387 19.2833 20.949 19.2282 20.9704C19.1731 20.9918 19.1227 21.0238 19.08 21.0647C19.0373 21.1056 19.003 21.1544 18.9792 21.2085C18.9554 21.2626 18.9425 21.3209 18.9412 21.38V24.49C18.9417 24.6065 18.9885 24.7179 19.0712 24.8C19.1621 24.8814 19.2791 24.9275 19.4012 24.93H26.4612C26.5815 24.9327 26.6981 24.8882 26.786 24.8059C26.8738 24.7237 26.926 24.6102 26.9312 24.49V7.27Z" fill="#FF5000"/>
</g>
<defs>
<clipPath id="clip0_6_316">
<rect width="106.63" height="31.96" fill="white" transform="translate(0.931152)"/>
</clipPath>
</defs>
</svg>
