<svg width="155" height="121" viewBox="0 0 155 121" fill="none" xmlns="http://www.w3.org/2000/svg">
<g clip-path="url(#clip0_6_293)">
<path d="M0 36.74L4.92 36C5.94 47 12.81 52.6 25.23 52.6C35.07 52.6 41.23 48.46 41.23 41.89C41.23 35.32 36.39 32.2 22.23 29.39C7 26.34 1.56 22.51 1.56 14.85C1.56 6 9.53 0 21.24 0C32.95 0 42 6.88 43.5 17L38.58 18C37.33 9.61 30.69 4.46 21.24 4.46C12.42 4.46 6.48 8.52 6.48 14.69C6.48 19.85 10.62 22.35 23.48 24.93C40 28.29 46.24 32.83 46.24 41.74C46.24 51.04 37.96 57.06 25.15 57.06C10.23 57.06 0.94 49.55 0 36.74ZM71.26 6.45H50.17V1.97H97.39V6.45H76.3V56.07H71.26V6.45ZM139.67 43.94H106.35L100.85 56.07H95.42L120.34 2H125.6L150.51 56.1H145.17L139.67 43.94ZM137.78 39.69L123.09 7.22H122.93L108.23 39.69H137.78ZM92.47 66.89H99.15L122.93 113.35H123.08L146.78 66.89H153.46V121H148.49V73.7H148.34L124.02 121H121.92L97.6 73.7H97.44V121H92.47V66.89ZM147.56 7.87H154.45V0.98H147.56V7.87Z" fill="#2A2A2A"/>
</g>
<defs>
<clipPath id="clip0_6_293">
<rect width="154.45" height="121" fill="white"/>
</clipPath>
</defs>
</svg>
