<svg width="19" height="18" viewBox="0 0 19 18" fill="none" xmlns="http://www.w3.org/2000/svg">
<g clip-path="url(#clip0_6_323)">
<path d="M18.37 16.76L13.58 11.83C14.6662 10.3537 15.1726 8.52998 15.003 6.70502C14.8334 4.88005 13.9996 3.18087 12.66 1.93C11.2474 0.651728 9.40016 -0.0393274 7.49537 -0.00216079C5.59058 0.0350058 3.77175 0.797594 2.41002 2.13C0.968571 3.46006 0.114522 5.30826 0.0357572 7.26801C-0.0430081 9.22777 0.659962 11.1385 1.99002 12.58C3.32008 14.0214 5.16828 14.8755 7.12804 14.9543C9.08779 15.033 10.9986 14.3301 12.44 13L17.31 17.86C17.3513 17.9035 17.4009 17.9383 17.4559 17.9623C17.5108 17.9864 17.57 17.9992 17.63 18C17.7542 17.9988 17.8728 17.9484 17.96 17.86L18.37 17.43C18.4144 17.3894 18.4499 17.34 18.474 17.2849C18.4981 17.2297 18.5104 17.1702 18.51 17.11C18.5134 17.045 18.5026 16.9801 18.4784 16.9196C18.4543 16.8592 18.4173 16.8047 18.37 16.76ZM1.65002 7.37C1.65002 6.18331 2.00192 5.02327 2.66121 4.03658C3.32049 3.04988 4.25757 2.28085 5.35392 1.82672C6.45028 1.37259 7.65668 1.25377 8.82057 1.48528C9.98445 1.7168 11.0535 2.28824 11.8927 3.12736C12.7318 3.96647 13.3032 5.03557 13.5347 6.19945C13.7662 7.36334 13.6474 8.56974 13.1933 9.6661C12.7392 10.7625 11.9701 11.6995 10.9834 12.3588C9.99675 13.0181 8.83671 13.37 7.65002 13.37C6.05872 13.37 4.5326 12.7379 3.40738 11.6126C2.28216 10.4874 1.65002 8.9613 1.65002 7.37Z" fill="#2A2A2A"/>
</g>
<defs>
<clipPath id="clip0_6_323">
<rect width="18.26" height="17.97" fill="white" transform="translate(0.25)"/>
</clipPath>
</defs>
</svg>
