<svg width="246" height="300" viewBox="0 0 246 300" fill="none" xmlns="http://www.w3.org/2000/svg">
<g clip-path="url(#clip0_6_326)">
<path d="M-2.58302e-05 17.06C-2.58302e-05 25.64 4.09997 31.26 10.4 31.26C16.48 31.26 19.55 27.26 21.84 16.07C23.5 7.93 24.9 5.46 28.02 5.46C31.56 5.46 33.95 9.05 33.95 14.3C33.95 20.13 30.95 24.13 25.74 25.12L26.62 29.54C33.33 28.4 37.96 22.31 37.96 14.36C37.96 6.41 33.8 0.99 27.96 0.99C22.6 0.99 19.96 4.58 17.87 14.99C15.96 23.87 14.21 26.73 10.29 26.73C6.36997 26.73 3.99997 22.99 3.99997 17.11C3.99997 9.47 7.32997 5.31 14.21 4.42L13.57 0C4.98997 0.93 -2.58302e-05 7.13 -2.58302e-05 17.06ZM0.779974 52.13H4.51997V47.81C4.51997 45.57 5.19997 44.81 7.06997 44.81H24.75V53.63H28.34V44.79H34.52V40.53H28.34V34.53H24.75V40.53H7.11997C2.59997 40.53 0.779974 42.61 0.779974 47.76V52.13ZM-2.58302e-05 66.55C-2.58302e-05 70.93 1.70997 74.93 4.25997 76.79V76.93H0.779974V81.03H20.12C25.58 81.03 29.12 76.56 29.12 69.54C29.2193 66.4255 28.3071 63.3626 26.52 60.81C25.7117 59.6817 24.6888 58.7238 23.51 57.9911C22.3312 57.2584 21.0195 56.7653 19.65 56.54L18.77 60.65C22.93 61.48 25.37 64.76 25.37 69.54C25.37 73.75 23.66 76.46 21 76.46C18.87 76.46 17.78 74.46 16.79 68.55C15.39 59.77 13 56.39 8.15997 56.39C3.11997 56.36 -2.58302e-05 60.15 -2.58302e-05 66.55ZM3.78997 67.43C3.78997 62.86 5.19997 60.67 8.15997 60.67C10.86 60.67 12.32 63.12 13.36 69.3C14.14 73.88 14.92 75.86 16.36 76.64V76.74H10.4C6.90997 76.74 3.78997 72.32 3.78997 67.43ZM-2.58302e-05 101.72C-2.58302e-05 106.03 1.55997 109.83 4.20997 112.06V112.17H0.779974V116.28H38.78V112.01H24.85V111.93C27.56 109.64 29.12 105.79 29.12 101.48C29.1623 99.5568 28.8146 97.645 28.0978 95.8599C27.3809 94.0748 26.3099 92.4534 24.9492 91.0937C23.5885 89.7339 21.9664 88.6639 20.1808 87.9483C18.3952 87.2327 16.4831 86.8863 14.56 86.93C6.02997 86.93 -2.58302e-05 93.14 -2.58302e-05 101.72ZM3.73997 101.98C3.73997 95.37 7.94997 91.21 14.56 91.21C21.17 91.21 25.37 95.42 25.37 101.72C25.37 107.54 21.47 112.01 16.64 112.01H12.48C7.63997 112.01 3.73997 107.59 3.73997 101.98ZM-2.58302e-05 136.68C-2.58302e-05 144.32 3.21997 149.31 8.10997 149.31C13 149.31 15.21 145.93 16.69 136.16C17.69 129.16 18.69 127.16 21.21 127.16C23.73 127.16 25.48 130.23 25.48 134.75C25.48 139.49 23.14 143.02 19.39 144.06L20.17 148.06C25.27 147.13 29.17 141.41 29.17 134.8C29.17 127.8 25.89 123.1 21.11 123.1C16.53 123.1 14.4 126.33 13.05 136.1C12.16 142.76 10.81 145.2 8.10997 145.2C5.40997 145.2 3.63997 141.93 3.63997 136.68C3.63997 130.49 6.23997 126.85 11.07 125.97L10.19 121.97C3.99997 122.85 -2.58302e-05 128.62 -2.58302e-05 136.68ZM0.779974 159.32H17.57C18.6087 159.265 19.6473 159.43 20.6184 159.802C21.5896 160.175 22.4715 160.747 23.207 161.483C23.9425 162.219 24.5151 163.1 24.8878 164.072C25.2604 165.043 25.4247 166.081 25.37 167.12C25.4041 168.145 25.2303 169.165 24.859 170.121C24.4878 171.077 23.9268 171.947 23.21 172.68C22.4874 173.425 21.6165 174.01 20.6537 174.398C19.6908 174.786 18.6573 174.967 17.62 174.93H0.779974V179.09H17.62C18.655 179.041 19.6888 179.21 20.6546 179.585C21.6205 179.96 22.4968 180.534 23.2272 181.269C23.9575 182.004 24.5256 182.884 24.8947 183.852C25.2637 184.82 25.4257 185.855 25.37 186.89C25.37 191.62 22.3 194.69 17.57 194.69H0.779974V198.93H18.78C24.78 198.93 29.13 193.83 29.13 187.13C29.1972 185.268 28.8163 183.417 28.0193 181.732C27.2223 180.048 26.0325 178.579 24.55 177.45V177.35C25.985 176.273 27.1471 174.874 27.9426 173.265C28.7381 171.657 29.1448 169.884 29.13 168.09C29.2009 166.444 28.9058 164.803 28.266 163.284C27.6262 161.766 26.6576 160.409 25.43 159.31V159.2H28.35V155.04H0.779974V159.32ZM-2.58302e-05 217.47C-2.58302e-05 221.89 1.49997 225.58 4.20997 227.66V227.76H0.779974V231.93H28.34V227.67H12.79C7.47997 227.67 3.78997 223.82 3.78997 218.47C3.78997 212.85 7.11997 209.68 12.79 209.68H28.39V205.41H11.9C10.3045 205.328 8.70913 205.576 7.21385 206.138C5.71858 206.701 4.35552 207.566 3.20997 208.68C2.11345 209.855 1.26427 211.239 0.712848 212.749C0.161426 214.259 -0.0809952 215.865 -2.58302e-05 217.47ZM-2.58302e-05 252.33C-2.58302e-05 259.93 3.20997 264.93 8.10997 264.93C13.01 264.93 15.23 261.5 16.69 251.78C17.69 244.78 18.69 242.78 21.21 242.78C23.73 242.78 25.48 245.85 25.48 250.37C25.48 255.1 23.14 258.64 19.39 259.68L20.17 263.68C25.27 262.75 29.17 257.03 29.17 250.42C29.17 243.42 25.89 238.72 21.11 238.72C16.53 238.72 14.4 241.95 13.05 251.72C12.16 258.38 10.81 260.82 8.10997 260.82C5.40997 260.82 3.68997 257.6 3.68997 252.35C3.68997 246.16 6.28997 242.52 11.12 241.63L10.24 237.63C3.99997 238.49 -2.58302e-05 244.27 -2.58302e-05 252.33ZM-2.58302e-05 284.33C-2.58302e-05 290.2 2.48997 294.88 7.27997 297.79L9.50997 294.41C7.69253 293.44 6.18087 291.983 5.14417 290.203C4.10747 288.423 3.58664 286.389 3.63997 284.33C3.63997 278.61 7.63997 273.93 13.05 273.93V298.63H14.61C23.08 298.63 29.12 292.44 29.12 284.27C29.12 275.69 23.12 269.61 14.4 269.61C5.67997 269.61 -2.58302e-05 275.54 -2.58302e-05 284.38V284.33ZM16.48 294.26V274.03C21.63 274.34 25.48 278.6 25.48 284.32C25.5129 286.812 24.6045 289.225 22.9362 291.077C21.2678 292.929 18.9623 294.084 16.48 294.31V294.26ZM46.21 298.71C50.63 298.71 54.32 297.2 56.4 294.5H56.5V297.93H60.66V270.37H56.38V285.93C56.38 291.23 52.53 294.98 47.17 294.98C41.56 294.98 38.39 291.65 38.39 285.98V270.38H34.12V286.81C34.0391 288.406 34.2887 290.002 34.8531 291.497C35.4175 292.993 36.2845 294.355 37.4 295.5C38.5778 296.599 39.9649 297.45 41.4785 298.001C42.9921 298.553 44.6012 298.794 46.21 298.71ZM72.21 297.93V281.13C72.1568 280.092 72.3222 279.054 72.6954 278.083C73.0686 277.113 73.6413 276.232 74.3765 275.496C75.1116 274.761 75.9929 274.189 76.9633 273.815C77.9337 273.442 78.9716 273.277 80.01 273.33C81.0385 273.297 82.0629 273.475 83.0206 273.851C83.9783 274.228 84.8492 274.796 85.58 275.52C86.3192 276.24 86.8996 277.106 87.2836 278.064C87.6677 279.022 87.847 280.049 87.81 281.08V297.93H91.97V281.08C91.9225 280.045 92.0921 279.012 92.468 278.047C92.8439 277.082 93.4176 276.206 94.1523 275.476C94.8871 274.746 95.7665 274.178 96.734 273.809C97.7015 273.439 98.7357 273.276 99.77 273.33C104.51 273.33 107.57 276.4 107.57 281.13V297.93H111.84V279.93C111.84 273.93 106.74 269.58 100.03 269.58C98.169 269.512 96.3189 269.893 94.6359 270.69C92.9529 271.487 91.4863 272.677 90.36 274.16H90.21C89.1345 272.723 87.7357 271.56 86.1269 270.764C84.5182 269.968 82.7447 269.563 80.95 269.58C79.3109 269.517 77.678 269.816 76.1675 270.456C74.6569 271.095 73.3057 272.059 72.21 273.28H72.11V270.37H67.94V297.93H72.21ZM174.51 298.71C180.39 298.71 185.07 296.21 187.98 291.43L184.6 289.19C183.629 291.009 182.171 292.523 180.389 293.561C178.607 294.6 176.572 295.122 174.51 295.07C168.79 295.07 164.11 291.12 164.11 285.66H188.81V284.1C188.81 275.62 182.63 269.59 174.46 269.59C165.88 269.59 159.8 275.59 159.8 284.31C159.8 293.03 165.66 298.71 174.5 298.71H174.51ZM184.45 282.23H164.21C164.52 277.08 168.78 273.23 174.5 273.23C176.984 273.21 179.384 274.124 181.226 275.791C183.067 277.458 184.214 279.756 184.44 282.23H184.45ZM199.27 297.93V282.38C199.27 277.08 203.33 273.33 209.15 273.33C214.56 273.33 217.94 276.71 217.94 282.17V297.93H222.21V281.34C222.21 274.34 216.9 269.59 209.15 269.59C205.15 269.59 201.35 271.15 199.27 273.8H199.21V270.37H195.01V297.93H199.27ZM243.91 297.93V294.19H239.59C237.36 294.19 236.59 293.51 236.59 291.64V273.93H245.43V270.34H236.59V264.15H232.31V270.34H226.31V273.93H232.31V291.56C232.31 296.08 234.39 297.9 239.54 297.9L243.91 297.93ZM140.31 299.41C148.31 299.41 153.93 294.31 153.93 287.24V259.37H149.67V262.85H149.56C148.223 261.435 146.599 260.323 144.796 259.589C142.994 258.854 141.055 258.513 139.11 258.59C137.19 258.553 135.283 258.905 133.502 259.624C131.722 260.343 130.105 261.415 128.75 262.776C127.394 264.136 126.328 265.756 125.615 267.539C124.902 269.322 124.556 271.23 124.6 273.15C124.6 281.73 130.6 287.71 139.32 287.71C143.74 287.71 147.59 286.05 149.72 283.29H149.82V287.03C149.82 292.03 145.82 295.67 140.31 295.67C135.47 295.67 132.45 293.79 130.37 289.48L126.73 291.35C129.07 296.6 133.7 299.41 140.31 299.41ZM139.58 283.93C132.92 283.93 128.87 279.82 128.87 273.11C128.87 266.66 133.03 262.29 139.32 262.29C145.19 262.29 149.67 266.19 149.67 271.03V275.19C149.67 280.07 145.21 283.93 139.58 283.93Z" fill="#FFF"/>
</g>
<defs>
<clipPath id="clip0_6_326">
<rect width="245.42" height="299.41" fill="white"/>
</clipPath>
</defs>
</svg>
