<svg width="173" height="42" viewBox="0 0 173 42" fill="none" xmlns="http://www.w3.org/2000/svg">
<g clip-path="url(#clip0_6_319)">
<path d="M16.07 0C24.74 0 31.35 5.06 32.45 12.54L28.83 13.23C27.91 7.08 23.03 3.23 16.08 3.23C9.58995 3.23 5.22995 6.23 5.22995 10.77C5.22995 14.56 8.22995 16.4 17.75 18.3C29.86 20.83 34.45 24.16 34.45 30.72C34.45 37.57 28.36 42 18.94 42C7.96995 42 1.13995 36.48 0.449951 27L4.06995 26.48C4.80995 34.54 9.86995 38.68 19 38.68C26.24 38.68 30.77 35.68 30.77 30.8C30.77 25.92 27.21 23.66 16.82 21.59C5.55995 19.39 1.59995 16.57 1.59995 10.93C1.59995 4.43 7.44995 0 16.07 0ZM72.45 2V5.31H56.82V42H53.08V5.31H37.45V2H72.45ZM93.91 2L112.45 42H108.45L104.36 33H79.5799L75.45 42H71.45L89.99 2H93.91ZM132.38 2L149.92 36.34H150.04L167.52 2H172.45V42H168.78V7H168.67L150.72 42H149.18L131.23 7H131.12V42H127.45V2H132.38ZM92.0399 5.89H91.92L80.9799 29.89H102.98L92.0399 5.89ZM115.45 1V6H110.45V1H115.45Z" fill="#2A2A2A"/>
</g>
<defs>
<clipPath id="clip0_6_319">
<rect width="172" height="42" fill="white" transform="translate(0.449951)"/>
</clipPath>
</defs>
</svg>
