<svg width="19" height="15" viewBox="0 0 19 15" fill="none" xmlns="http://www.w3.org/2000/svg">
<g clip-path="url(#clip0_6_329)">
<path d="M6.57003 14.62C7.95235 14.6306 9.32299 14.3664 10.6023 13.8426C11.8815 13.3188 13.0439 12.5459 14.0219 11.5689C14.9998 10.5919 15.7738 9.43027 16.2988 8.15148C16.8238 6.8727 17.0894 5.50232 17.08 4.11999V3.63999C17.7982 3.11661 18.4178 2.46992 18.91 1.72999C18.2363 2.0282 17.5217 2.22371 16.79 2.30999C17.5514 1.858 18.126 1.14861 18.41 0.309993C17.6869 0.740902 16.8955 1.04527 16.07 1.20999C15.5142 0.624347 14.7821 0.236576 13.9854 0.105831C13.1887 -0.0249146 12.371 0.108543 11.6572 0.485845C10.9434 0.863147 10.3726 1.46358 10.0318 2.19556C9.69112 2.92754 9.59917 3.75088 9.77003 4.53999C8.30101 4.4651 6.86421 4.08181 5.55309 3.41505C4.24196 2.74829 3.08588 1.81299 2.16003 0.669993C1.68939 1.48403 1.54634 2.44673 1.75994 3.36245C1.97355 4.27817 2.52779 5.07821 3.31003 5.59999C2.72118 5.58409 2.14486 5.42629 1.63003 5.13999C1.63118 5.99808 1.93134 6.82894 2.47887 7.48963C3.02641 8.15032 3.78708 8.59954 4.63003 8.75999C4.07342 8.93192 3.48401 8.96961 2.91003 8.86999C3.14717 9.60267 3.607 10.2431 4.22544 10.702C4.84387 11.1609 5.59008 11.4154 6.36003 11.43C5.05754 12.4564 3.44837 13.0163 1.79003 13.02C1.49578 13.0172 1.20194 12.9972 0.910034 12.96C2.59816 14.0453 4.56311 14.6216 6.57003 14.62Z" fill="#2A2A2A"/>
</g>
<defs>
<clipPath id="clip0_6_329">
<rect width="18" height="14.62" fill="white" transform="translate(0.910034)"/>
</clipPath>
</defs>
</svg>
